<?xml version="1.0" standalone="no"?><!DOCTYPE svg PUBLIC "-//W3C//DTD SVG 1.1//EN" "http://www.w3.org/Graphics/SVG/1.1/DTD/svg11.dtd"><svg t="1551170368620" class="icon" style="" viewBox="0 0 1024 1024" version="1.1" xmlns="http://www.w3.org/2000/svg" p-id="11975" xmlns:xlink="http://www.w3.org/1999/xlink" width="128" height="128"><defs><style type="text/css"></style></defs><path d="M830.304 359.104h-142.72v88.704h142.72v-88.704z m0 112.896h-142.72v88.736h142.72V472z m0-225.792h-142.72v88.704h142.72V246.208z m0 447.552h-142.72v88.736h142.72V693.76z m65.6-536.256H552.704a29.76 29.76 0 0 0-11.584 2.368V64L32 165.568v692.864L541.12 960v-91.072a29.76 29.76 0 0 0 11.584 2.368h343.2c17.056 0 30.88-14.496 30.88-32.256V189.76c-0.032-17.792-13.824-32.256-30.88-32.256z m-520.64 504.096l-61.696-4.032-46.24-116.992-50.144 108.96-57.888-4.032 73.28-133.184-65.536-145.152 57.824-4.032 38.56 108.864h7.68l42.432-116.96 61.696-4-77.12 153.216 77.12 157.344z m512.928 169.344H541.056v-48.384h115.68V693.76h-115.68v-20.096h115.68V584.96h-115.68v-24.192h115.68V472h-115.68v-24.224h115.68v-88.704h-115.68v-24.16h115.68V246.208h-115.68V197.824h347.136v633.12z m-57.888-246.016h-142.72v88.704h142.72V584.96z" fill="#377F52" p-id="11976"></path></svg>