<?xml version="1.0" standalone="no"?><!DOCTYPE svg PUBLIC "-//W3C//DTD SVG 1.1//EN" "http://www.w3.org/Graphics/SVG/1.1/DTD/svg11.dtd"><svg t="1552462634832" class="icon" style="" viewBox="0 0 1024 1024" version="1.1" xmlns="http://www.w3.org/2000/svg" p-id="13560" xmlns:xlink="http://www.w3.org/1999/xlink" width="128" height="128"><defs><style type="text/css"></style></defs><path d="M828.999111 10.638222v211.868445h129.393778L828.999111 10.638222zM439.224889 275.868444a136.177778 136.177778 0 0 0 30.734222-3.242666c6.471111-1.621333 12.928-4.849778 17.792-11.320889 4.849778-4.849778 11.320889-14.563556 14.535111-22.656 3.242667-11.320889 4.864-22.641778 4.864-38.812445 0-21.034667-3.242667-35.584-11.320889-48.526222-6.471111-11.320889-14.549333-17.777778-22.641777-22.641778-6.471111-4.849778-19.413333-4.849778-33.976889-4.849777H398.791111v150.414222l40.433778 1.635555zM280.718222 140.017778c-3.242667-4.849778-8.078222-8.078222-16.170666-11.320889-3.242667 0-9.699556-1.621333-22.641778-1.621333H193.379556v66.318222h48.526222c17.777778 0 25.870222-3.242667 33.962666-9.699556 8.078222-6.471111 11.320889-16.170667 11.320889-24.263111 0-9.713778-1.607111-14.563556-6.471111-19.413333z" fill="#E0474D" p-id="13561"></path><path d="M958.392889 301.738667v-48.512h-164.977778V10.638222H64v1002.723556h896l-1.607111-711.623111zM589.624889 89.884444h152.035555v33.962667h-114.830222v56.604445h98.659556v33.962666h-98.659556v95.416889h-37.205333V89.884444z m-226.417778 0h77.624889c17.806222 0 29.127111 1.621333 37.205333 3.228445 12.928 3.242667 22.641778 9.713778 32.341334 16.170667 12.928 11.320889 21.020444 22.641778 25.856 37.205333 4.864 16.170667 9.713778 32.341333 9.713777 51.754667 0 16.170667-1.607111 30.72-4.849777 43.662222-3.242667 12.942222-9.713778 22.656-16.184889 32.355555-6.456889 9.699556-14.535111 16.170667-21.020445 21.020445s-17.792 9.699556-25.870222 12.942222c-11.320889 1.621333-22.656 3.242667-33.976889 3.242667H364.8V89.884444h-1.592889z m-207.018667 0h84.110223c14.549333 0 24.263111 0 32.341333 1.621334 11.320889 1.607111 21.020444 4.849778 27.491556 11.320889 6.471111 4.849778 12.942222 12.928 17.792 22.641777 4.849778 9.713778 6.471111 19.413333 6.471111 30.734223 0 19.399111-6.471111 35.584-19.413334 48.526222-12.942222 14.549333-33.962667 21.020444-66.304 21.020444H190.151111v84.110223H152.945778V89.884444h3.242666z m786.019556 907.306667H81.777778V392.305778h860.430222v604.885333z" fill="#E0474D" p-id="13562"></path><path d="M670.506667 801.493333c-32.341333-1.607111-64.682667-16.170667-88.96-35.584-50.133333 11.335111-97.024 25.884444-143.943111 46.919111-37.191111 66.304-71.153778 100.252444-101.888 100.252445-6.471111 0-14.549333-1.607111-19.399112-4.835556-12.942222-4.864-21.034667-19.413333-21.034666-32.355555 0-11.306667 1.621333-40.419556 118.058666-88.945778 25.884444-48.526222 46.904889-98.673778 64.696889-150.385778-14.549333-29.141333-46.904889-100.309333-22.656-135.864889 6.485333-14.549333 22.656-21.034667 37.205334-19.413333 12.928 0 22.641778 4.849778 30.72 16.170667 16.170667 22.641778 14.549333 67.911111-4.849778 134.243555a434.872889 434.872889 0 0 0 72.775111 97.024c25.884444-4.864 50.133333-9.699556 76.017778-9.699555 56.604444 1.607111 66.304 27.477333 64.696889 43.633777-3.228444 38.840889-42.040889 38.840889-61.44 38.840889z m-339.640889 74.396445l3.228444-1.607111c17.792-6.471111 29.112889-17.777778 38.812445-33.948445-16.170667 8.078222-30.72 19.384889-42.040889 35.555556z m160.099555-362.268445h-3.228444c-1.621333 0-3.242667 0-4.864 1.621334-4.849778 21.006222-1.607111 40.419556 6.471111 63.061333 6.485333-22.641778 8.106667-45.269333 1.621333-64.682667z m8.106667 174.663111h-3.242667c-11.320889 27.505778-22.641778 54.997333-35.584 82.474667l1.621334-1.607111v1.607111c27.491556-11.306667 53.361778-17.777778 82.474666-22.641778l-1.621333-1.607111h3.242667c-16.170667-16.170667-32.355556-37.205333-46.890667-58.225778z m164.949333 64.682667c-11.320889 0-21.034667 0-30.72 1.607111 12.928 4.864 22.641778 9.728 35.569778 11.335111a47.928889 47.928889 0 0 0 22.641778-1.607111c1.621333-4.864-3.214222-11.335111-27.491556-11.335111z" fill="#E0474D" p-id="13563"></path></svg>